<svg width="21" height="24" viewBox="0 0 21 24" fill="none" xmlns="http://www.w3.org/2000/svg">
<path d="M11.8262 22.5996C11.4285 22.8611 10.9693 23.0006 10.501 23H10.499C10.0307 23.0006 9.57151 22.8611 9.17383 22.5996H11.8262ZM1 17.999C0.999958 17.9694 1.0052 17.9399 1.01562 17.9141C1.02603 17.8883 1.04113 17.8665 1.05762 17.8496L1.05859 17.8486L3.05078 15.7998L3.33301 15.5088V9.59961C3.33318 6.18473 5.58743 3.32839 8.6084 2.47168L9.08887 2.33594L9.26855 1.87012C9.47161 1.34406 9.95359 1 10.5 1C11.0464 1 11.5284 1.34406 11.7314 1.87012L11.9111 2.33594L12.3916 2.47168C15.4122 3.32712 17.6668 6.18441 17.667 9.59961V15.5088L17.9492 15.7998L19.9414 17.8486L19.9424 17.8496C19.9589 17.8665 19.974 17.8883 19.9844 17.9141C19.9948 17.9399 20 17.9694 20 17.999V19.2002C19.9999 19.2621 19.9759 19.3161 19.9414 19.3516C19.9078 19.3861 19.868 19.4004 19.833 19.4004H1.16699C1.13203 19.4004 1.09216 19.3861 1.05859 19.3516C1.02413 19.3161 1.00005 19.2621 1 19.2002V17.999Z" stroke="black" stroke-width="2"/>
</svg>
