<svg width="40" height="40" viewBox="0 0 40 40" fill="none" xmlns="http://www.w3.org/2000/svg">
<path d="M0 24.3369C0 22.1743 1.75316 20.4211 3.91579 20.4211H15.6632C17.8258 20.4211 19.5789 22.1743 19.5789 24.3369V30.2106C19.5789 35.6172 15.196 40.0001 9.78947 40.0001C4.3829 40.0001 0 35.6172 0 30.2106V24.3369Z" fill="#C9C9C9"/>
<circle cx="30.2105" cy="30.2106" r="9.78947" fill="#C9C9C9"/>
<path d="M0 4C0 1.79087 1.79086 0 4 0H15.5789C17.7881 0 19.5789 1.79086 19.5789 4V19.5789H0V4Z" fill="#C9C9C9"/>
<path d="M20.4211 3.91579C20.4211 1.75316 22.1742 0 24.3369 0H36.0842C38.2469 0 40 1.75316 40 3.91579V9.78947C40 15.196 35.6171 19.5789 30.2106 19.5789C24.804 19.5789 20.4211 15.1961 20.4211 9.78948V3.91579Z" fill="#C9C9C9"/>
</svg>
