<svg width="24" height="24" viewBox="0 0 24 24" fill="none" xmlns="http://www.w3.org/2000/svg">
<path d="M0 11.25C0 13.8 0.904688 16.1531 2.43281 18.0422L0.145312 22.2328C0.0515624 22.4062 0 22.6031 0 22.8047C0 23.4656 0.534375 24 1.19531 24C1.38281 24 1.56094 23.9719 1.73438 23.9016L7.19062 21.5625C8.6625 22.1672 10.2891 22.5 12 22.5C18.6281 22.5 24 17.4609 24 11.25C24 5.03906 18.6281 0 12 0C5.37188 0 0 5.03906 0 11.25ZM4.40625 19.1203C4.84219 18.3188 4.75312 17.3344 4.18125 16.6266C2.95781 15.1125 2.25 13.2563 2.25 11.25C2.25 6.4125 6.47812 2.25 12 2.25C17.5219 2.25 21.75 6.4125 21.75 11.25C21.75 16.0875 17.5219 20.25 12 20.25C10.5844 20.25 9.24844 19.9734 8.04844 19.4813C7.49062 19.2516 6.8625 19.2563 6.30938 19.4953L3.5625 20.6672L4.40625 19.1203ZM6.75 12.75C7.57969 12.75 8.25 12.0797 8.25 11.25C8.25 10.4203 7.57969 9.75 6.75 9.75C5.92031 9.75 5.25 10.4203 5.25 11.25C5.25 12.0797 5.92031 12.75 6.75 12.75ZM13.5 11.25C13.5 10.4203 12.8297 9.75 12 9.75C11.1703 9.75 10.5 10.4203 10.5 11.25C10.5 12.0797 11.1703 12.75 12 12.75C12.8297 12.75 13.5 12.0797 13.5 11.25ZM17.25 12.75C18.0797 12.75 18.75 12.0797 18.75 11.25C18.75 10.4203 18.0797 9.75 17.25 9.75C16.4203 9.75 15.75 10.4203 15.75 11.25C15.75 12.0797 16.4203 12.75 17.25 12.75Z" fill="#777777"/>
</svg>
