<svg width="24" height="24" viewBox="0 0 24 24" fill="none" xmlns="http://www.w3.org/2000/svg">
<path d="M13.5762 11.4877H10.2227V14.4088H13.5762V11.4877Z" fill="#212121"/>
<path d="M18.8335 11.4877H15.48V14.4088H18.8335V11.4877Z" fill="#212121"/>
<path d="M8.32422 15.9277H4.9707V18.8488H8.32422V15.9277Z" fill="#212121"/>
<path d="M13.5762 15.9277H10.2227V18.8488H13.5762V15.9277Z" fill="#212121"/>
<path d="M18.8335 15.9277H15.48V18.8488H18.8335V15.9277Z" fill="#212121"/>
<path d="M6.72986 6.05901C5.90438 6.05901 5.22852 5.4703 5.22852 4.75127V1.80774C5.22852 1.08871 5.90438 0.5 6.72986 0.5C7.55534 0.5 8.23121 1.08871 8.23121 1.80774V4.75577C8.23121 5.4703 7.55534 6.05901 6.72986 6.05901Z" fill="#FF7043"/>
<path d="M20.9127 3.27725H19.2102V5.06135C19.2102 6.16236 18.1938 7.06115 16.9504 7.06115H16.352C15.1086 7.06115 14.0922 6.16236 14.0922 5.06135V3.27725H9.42823V5.06135C9.42823 6.16236 8.41185 7.06115 7.16847 7.06115H6.56999C5.32661 7.06115 4.31024 6.16236 4.31024 5.06135V3.27725H3.00494C1.60678 3.27725 0.461426 4.28839 0.461426 5.52422V21.253C0.461426 22.4889 1.60678 23.5 3.00494 23.5H20.9179C22.3161 23.5 23.4614 22.4889 23.4614 21.253V5.52422C23.4563 4.28839 22.3109 3.27725 20.9127 3.27725ZM20.4794 19.1319C20.4794 19.9004 19.7674 20.5295 18.9006 20.5295H5.02221C4.15546 20.5295 3.44348 19.9004 3.44348 19.1319V11.2046C3.44348 10.4361 4.15546 9.75303 5.02221 9.75303H18.9006C19.7674 9.75303 20.4794 10.4361 20.4794 11.2046V19.1319Z" fill="#E64A19"/>
<path d="M16.6615 6.05901C15.836 6.05901 15.1602 5.4703 15.1602 4.75127V1.80774C15.1602 1.08871 15.836 0.5 16.6615 0.5C17.487 0.5 18.1628 1.08871 18.1628 1.80774V4.75577C18.1628 5.4703 17.487 6.05901 16.6615 6.05901Z" fill="#FF7043"/>
</svg>
