<svg width="24" height="22" viewBox="0 0 24 22" fill="none" xmlns="http://www.w3.org/2000/svg">
<path d="M17.7609 2.7505C16.4812 2.7505 15.2766 3.3647 14.5266 4.40087L12.9141 6.63262C12.7031 6.92331 12.3656 7.09678 12.0047 7.09678C11.6438 7.09678 11.3063 6.92331 11.0953 6.63262L9.48281 4.40087C8.73281 3.3647 7.52813 2.7505 6.24844 2.7505C4.04531 2.7505 2.25937 4.53684 2.25937 6.74046C2.25937 9.08004 3.75938 11.354 5.45156 13.4123C7.37813 15.7565 9.73594 17.8195 11.3531 19.0526C11.5031 19.1651 11.7234 19.2495 12.0094 19.2495C12.2953 19.2495 12.5156 19.1651 12.6656 19.0526C14.2828 17.8195 16.6406 15.7518 18.5672 13.4123C20.2641 11.354 21.7594 9.08004 21.7594 6.74046C21.7594 4.53684 19.9734 2.7505 17.7703 2.7505H17.7609ZM12.7031 3.08339C13.875 1.46115 15.7594 0.5 17.7609 0.5C21.2062 0.5 24 3.29437 24 6.74046C24 9.9568 21.9891 12.784 20.2922 14.8423C18.225 17.3553 15.7313 19.5355 14.0203 20.8389C13.4438 21.2796 12.7312 21.5 12 21.5C11.2688 21.5 10.5562 21.2796 9.97969 20.8389C8.26875 19.5355 5.775 17.3553 3.70781 14.847C2.01094 12.7887 0 9.9568 0 6.74046C0 3.29437 2.79375 0.5 6.23906 0.5C8.24063 0.5 10.125 1.46115 11.2969 3.08339L12 4.05392L12.7031 3.08339Z" fill="#777777"/>
</svg>
