<svg width="30" height="28" viewBox="0 0 30 28" fill="none" xmlns="http://www.w3.org/2000/svg">
<path d="M14.9707 0.8125C17.5397 0.8125 19.9158 1.31249 22.099 2.31248C24.2821 3.31246 26.0081 4.67225 27.2767 6.3918C28.5454 8.11129 29.1797 9.98693 29.1797 12.0187C29.1797 14.0504 28.5454 15.9286 27.2767 17.6535C26.0081 19.3783 24.2848 20.7408 22.1069 21.7407C19.929 22.7407 17.5503 23.2407 14.9707 23.2407C14.1567 23.2407 13.3161 23.1825 12.4492 23.0661C8.68553 25.6798 6.68215 27.0026 6.43898 27.0343C6.32268 27.0766 6.21164 27.0713 6.10594 27.0184C6.06363 26.9867 6.03193 26.9443 6.01078 26.8914C5.98963 26.8385 5.97908 26.7909 5.97908 26.7486V26.6851C6.04254 26.2724 6.52353 24.5529 7.42219 21.5264C5.38175 20.5106 3.76157 19.1641 2.56163 17.4868C1.36169 15.8096 0.761719 13.9869 0.761719 12.0187C0.761719 9.98693 1.39605 8.11129 2.66471 6.3918C3.93337 4.67225 5.65927 3.31246 7.84242 2.31248C10.0256 1.31249 12.4017 0.8125 14.9707 0.8125Z" fill="black"/>
</svg>
