<svg width="26" height="23" viewBox="0 0 26 23" fill="none" xmlns="http://www.w3.org/2000/svg">
<path d="M3.9 23V20.4444H22.1V23H3.9ZM3.9 18.5278L2.2425 8.27361C2.19917 8.27361 2.15042 8.27894 2.09625 8.28958C2.04208 8.30023 1.99333 8.30556 1.95 8.30556C1.40833 8.30556 0.947917 8.11921 0.56875 7.74653C0.189583 7.37384 0 6.9213 0 6.38889C0 5.85648 0.189583 5.40394 0.56875 5.03125C0.947917 4.65857 1.40833 4.47222 1.95 4.47222C2.49167 4.47222 2.95208 4.65857 3.33125 5.03125C3.71042 5.40394 3.9 5.85648 3.9 6.38889C3.9 6.53796 3.88375 6.67639 3.85125 6.80417C3.81875 6.93194 3.78083 7.04907 3.7375 7.15556L7.8 8.94444L11.8625 3.48194C11.6242 3.31157 11.4292 3.08796 11.2775 2.81111C11.1258 2.53426 11.05 2.23611 11.05 1.91667C11.05 1.38426 11.2396 0.931713 11.6187 0.559028C11.9979 0.186343 12.4583 0 13 0C13.5417 0 14.0021 0.186343 14.3812 0.559028C14.7604 0.931713 14.95 1.38426 14.95 1.91667C14.95 2.23611 14.8742 2.53426 14.7225 2.81111C14.5708 3.08796 14.3758 3.31157 14.1375 3.48194L18.2 8.94444L22.2625 7.15556C22.2192 7.04907 22.1812 6.93194 22.1487 6.80417C22.1162 6.67639 22.1 6.53796 22.1 6.38889C22.1 5.85648 22.2896 5.40394 22.6687 5.03125C23.0479 4.65857 23.5083 4.47222 24.05 4.47222C24.5917 4.47222 25.0521 4.65857 25.4312 5.03125C25.8104 5.40394 26 5.85648 26 6.38889C26 6.9213 25.8104 7.37384 25.4312 7.74653C25.0521 8.11921 24.5917 8.30556 24.05 8.30556C24.0067 8.30556 23.9579 8.30023 23.9037 8.28958C23.8496 8.27894 23.8008 8.27361 23.7575 8.27361L22.1 18.5278H3.9Z" fill="#FFD700"/>
</svg>
