<svg width="43" height="43" viewBox="0 0 43 43" fill="none" xmlns="http://www.w3.org/2000/svg">
<path d="M21.5 0C21.5 0 8.2001 12.7567 0.76755 19.6653C0.3311 20.1049 0 20.7451 0 21.5C0 22.8211 0.96105 23.8889 2.15 23.8889H6.45V40.6111C6.45 41.9322 7.41105 43 8.6 43H15.05C16.239 43 17.2 41.9298 17.2 40.6111V31.0556H25.8V40.6111C25.8 41.9298 26.7611 43 27.95 43H34.4C35.589 43 36.55 41.9322 36.55 40.6111V23.8889H40.85C42.039 23.8889 43 22.8211 43 21.5C43 20.7451 42.6689 20.1049 42.1766 19.6653C34.7956 12.7567 21.5 0 21.5 0Z" fill="currentColor"/>
</svg>
