<svg width="41" height="40" viewBox="0 0 41 40" fill="none" xmlns="http://www.w3.org/2000/svg">
<path d="M3.83333 40C3.83333 40 0.5 40 0.5 36.6667C0.5 33.3333 3.83333 23.3333 20.5 23.3333C37.1667 23.3333 40.5 33.3333 40.5 36.6667C40.5 40 37.1667 40 37.1667 40H3.83333ZM20.5 20C23.1522 20 25.6957 18.9464 27.5711 17.0711C29.4464 15.1957 30.5 12.6522 30.5 10C30.5 7.34784 29.4464 4.8043 27.5711 2.92893C25.6957 1.05357 23.1522 0 20.5 0C17.8478 0 15.3043 1.05357 13.4289 2.92893C11.5536 4.8043 10.5 7.34784 10.5 10C10.5 12.6522 11.5536 15.1957 13.4289 17.0711C15.3043 18.9464 17.8478 20 20.5 20Z" fill="currentColor"/>
</svg>
