<svg width="24" height="24" viewBox="0 0 24 24" fill="none" xmlns="http://www.w3.org/2000/svg">
<path d="M11.9614 23.5C5.60947 23.5 0.461426 18.352 0.461426 12C0.461426 5.64805 5.60947 0.5 11.9614 0.5C18.3134 0.5 23.4614 5.64805 23.4614 12C23.4614 18.352 18.3134 23.5 11.9614 23.5ZM10.8833 12C10.8833 12.3594 11.063 12.6963 11.364 12.858L15.6765 15.733C16.1706 16.1014 16.8399 15.9666 17.1319 15.4725C17.5003 14.9783 17.3655 14.309 16.8714 13.9766L13.0396 11.425V5.89062C13.0396 5.29316 12.5589 4.8125 11.921 4.8125C11.364 4.8125 10.8429 5.29316 10.8429 5.89062L10.8833 12Z" fill="#4CAF50"/>
</svg>
