<svg width="40" height="24" viewBox="0 0 40 24" fill="none" xmlns="http://www.w3.org/2000/svg">
<path d="M14.6925 5.80769C14.6925 2.8 16.9925 0.5 20.0001 0.5C23.0078 0.5 25.3078 2.8 25.3078 5.80769C25.3078 8.81538 23.0078 11.1154 20.0001 11.1154C16.9925 11.1154 14.6925 8.81538 14.6925 5.80769ZM20.0001 14.6538C11.8617 14.6538 9.38477 20.4923 9.38477 20.4923V23.5H30.6155V20.4923C30.6155 20.4923 28.1386 14.6538 20.0001 14.6538Z" fill="#3A8DFF"/>
<path d="M31.5 9.34615C33.9428 9.34615 35.9231 7.36587 35.9231 4.92308C35.9231 2.48028 33.9428 0.5 31.5 0.5C29.0572 0.5 27.0769 2.48028 27.0769 4.92308C27.0769 7.36587 29.0572 9.34615 31.5 9.34615Z" fill="#3A8DFF"/>
<path d="M31.4997 12.8846C29.3767 12.8846 27.7844 13.4154 26.5459 14.3C30.6151 16.2462 32.2074 19.6077 32.2074 19.9615V20.1385H39.4613V17.8385C39.4613 17.6615 37.5151 12.8846 31.4997 12.8846Z" fill="#3A8DFF"/>
<path d="M8.50023 9.34615C10.943 9.34615 12.9233 7.36587 12.9233 4.92308C12.9233 2.48028 10.943 0.5 8.50023 0.5C6.05743 0.5 4.07715 2.48028 4.07715 4.92308C4.07715 7.36587 6.05743 9.34615 8.50023 9.34615Z" fill="#3A8DFF"/>
<path d="M8.50011 12.8846C10.6232 12.8846 12.2155 13.4154 13.454 14.3C9.38473 16.2462 7.79242 19.6077 7.79242 19.9615V20.1385H0.538574V17.8385C0.538574 17.6615 2.48473 12.8846 8.50011 12.8846Z" fill="#3A8DFF"/>
</svg>
