<svg width="31" height="40" viewBox="0 0 31 40" fill="none" xmlns="http://www.w3.org/2000/svg">
<path fill-rule="evenodd" clip-rule="evenodd" d="M26.75 13.3333H24.875V9.52381C24.875 4.19048 20.75 0 15.5 0C10.25 0 6.125 4.19048 6.125 9.52381V13.3333H4.25C2.1875 13.3333 0.5 15.0476 0.5 17.1429V36.1905C0.5 38.2857 2.1875 40 4.25 40H26.75C28.8125 40 30.5 38.2857 30.5 36.1905V17.1429C30.5 15.0476 28.8125 13.3333 26.75 13.3333ZM15.5 30.4762C13.4375 30.4762 11.75 28.7619 11.75 26.6667C11.75 24.5714 13.4375 22.8571 15.5 22.8571C17.5625 22.8571 19.25 24.5714 19.25 26.6667C19.25 28.7619 17.5625 30.4762 15.5 30.4762ZM21.3125 13.3333H9.6875V9.52381C9.6875 6.28571 12.3125 3.61905 15.5 3.61905C18.6875 3.61905 21.3125 6.28571 21.3125 9.52381V13.3333Z" fill="#C9C9C9"/>
</svg>
