<svg width="20" height="18" viewBox="0 0 20 18" fill="none" xmlns="http://www.w3.org/2000/svg">
<path d="M2 16H18V14H2V16ZM6 10H8V7C8 6.45 8.19583 5.97917 8.5875 5.5875C8.97917 5.19583 9.45 5 10 5V3C8.9 3 7.95833 3.39167 7.175 4.175C6.39167 4.95833 6 5.9 6 7V10ZM5 12H15V7C15 5.61667 14.5125 4.4375 13.5375 3.4625C12.5625 2.4875 11.3833 2 10 2C8.61667 2 7.4375 2.4875 6.4625 3.4625C5.4875 4.4375 5 5.61667 5 7V12ZM2 18C1.45 18 0.979167 17.8042 0.5875 17.4125C0.195833 17.0208 0 16.55 0 16V14C0 13.45 0.195833 12.9792 0.5875 12.5875C0.979167 12.1958 1.45 12 2 12H3V7C3 5.05 3.67917 3.39583 5.0375 2.0375C6.39583 0.679167 8.05 0 10 0C11.95 0 13.6042 0.679167 14.9625 2.0375C16.3208 3.39583 17 5.05 17 7V12H18C18.55 12 19.0208 12.1958 19.4125 12.5875C19.8042 12.9792 20 13.45 20 14V16C20 16.55 19.8042 17.0208 19.4125 17.4125C19.0208 17.8042 18.55 18 18 18H2Z" fill="black"/>
</svg>
